HIERARCHY
ROOT hip
{
  OFFSET 0 0 0
  CHANNELS 6 Xposition Yposition Zposition Zrotation Yrotation Xrotation
  JOINT abdomen
  {
    OFFSET 0 20.6881 -0.73152
    CHANNELS 3 Zrotation Xrotation Yrotation
    JOINT chest
    {
      OFFSET 0 11.7043 -0.48768
      CHANNELS 3 Zrotation Xrotation Yrotation
      JOINT neck
      {
        OFFSET 0 22.1894 -2.19456
        CHANNELS 3 Zrotation Xrotation Yrotation
        JOINT head
        {
          OFFSET -0.24384 7.07133 1.2192
          CHANNELS 3 Zrotation Xrotation Yrotation
          JOINT leftEye
          {
            OFFSET 4.14528 8.04674 8.04672
            CHANNELS 3 Zrotation Xrotation Yrotation
            End Site
            {
              OFFSET 1 0 0
            }
          }
          JOINT rightEye
          {
            OFFSET -3.6576 8.04674 8.04672
            CHANNELS 3 Zrotation Xrotation Yrotation
            End Site
            {
              OFFSET 1 0 0
            }
          }
        }
      }
      JOINT rCollar
      {
        OFFSET -2.68224 19.2634 -4.8768
        CHANNELS 3 Zrotation Xrotation Yrotation
        JOINT rShldr
        {
          OFFSET -8.77824 -1.95073 1.46304
          CHANNELS 3 Zrotation Xrotation Yrotation
          JOINT rForeArm
          {
            OFFSET -28.1742 -1.7115 0.48768
            CHANNELS 3 Zrotation Xrotation Yrotation
            JOINT rHand
            {
              OFFSET -22.5879 0.773209 7.07136
              CHANNELS 3 Zrotation Xrotation Yrotation
              JOINT rThumb1
              {
                OFFSET -1.2192 -0.487915 3.41376
                CHANNELS 3 Zrotation Xrotation Yrotation
                JOINT rThumb2
                {
                  OFFSET -3.37035 -0.52449 3.41376
                  CHANNELS 3 Zrotation Xrotation Yrotation
                  End Site
                  {
                    OFFSET -1.78271 -1.18214 1.43049
                  }
                }
              }
              JOINT rIndex1
              {
                OFFSET -7.75947 0.938293 5.60832
                CHANNELS 3 Zrotation Xrotation Yrotation
                JOINT rIndex2
                {
                  OFFSET -2.54057 -0.884171 1.56538
                  CHANNELS 3 Zrotation Xrotation Yrotation
                  End Site
                  {
                    OFFSET -1.62519 -0.234802 1.16502
                  }
                }
              }
              JOINT rMid1
              {
                OFFSET -8.24714 1.18213 3.41376
                CHANNELS 3 Zrotation Xrotation Yrotation
                JOINT rMid2
                {
                  OFFSET -3.10165 -0.590103 1.0647
                  CHANNELS 3 Zrotation Xrotation Yrotation
                  End Site
                  {
                    OFFSET -2.48547 -0.328903 0.83742
                  }
                }
              }
              JOINT rRing1
              {
                OFFSET -8.82822 0.546677 1.51678
                CHANNELS 3 Zrotation Xrotation Yrotation
                JOINT rRing2
                {
                  OFFSET -2.60934 -0.819778 -0.0198488
                  CHANNELS 3 Zrotation Xrotation Yrotation
                  End Site
                  {
                    OFFSET -2.33842 -0.294052 0.168128
                  }
                }
              }
              JOINT rPinky1
              {
                OFFSET -8.27202 -0.0477905 -0.4584
                CHANNELS 3 Zrotation Xrotation Yrotation
                JOINT rPinky2
                {
                  OFFSET -1.82734 -0.647385 -0.700984
                  CHANNELS 3 Zrotation Xrotation Yrotation
                  End Site
                  {
                    OFFSET -1.69225 -0.51767 -0.607171
                  }
                }
              }
            }
          }
        }
      }
      JOINT lCollar
      {
        OFFSET 2.68224 19.2634 -4.8768
        CHANNELS 3 Zrotation Xrotation Yrotation
        JOINT lShldr
        {
          OFFSET 8.77824 -1.95073 1.46304
          CHANNELS 3 Zrotation Xrotation Yrotation
          JOINT lForeArm
          {
            OFFSET 28.1742 -1.7115 0.48768
            CHANNELS 3 Zrotation Xrotation Yrotation
            JOINT lHand
            {
              OFFSET 22.5879 0.773209 7.07136
              CHANNELS 3 Zrotation Xrotation Yrotation
              JOINT lThumb1
              {
                OFFSET 1.2192 -0.487915 3.41376
                CHANNELS 3 Zrotation Xrotation Yrotation
                JOINT lThumb2
                {
                  OFFSET 3.37035 -0.52449 3.41376
                  CHANNELS 3 Zrotation Xrotation Yrotation
                  End Site
                  {
                    OFFSET 1.78271 -1.18214 1.43049
                  }
                }
              }
              JOINT lIndex1
              {
                OFFSET 7.75947 0.938293 5.60832
                CHANNELS 3 Zrotation Xrotation Yrotation
                JOINT lIndex2
                {
                  OFFSET 2.54057 -0.884171 1.56538
                  CHANNELS 3 Zrotation Xrotation Yrotation
                  End Site
                  {
                    OFFSET 1.62519 -0.234802 1.16502
                  }
                }
              }
              JOINT lMid1
              {
                OFFSET 8.24714 1.18213 3.41376
                CHANNELS 3 Zrotation Xrotation Yrotation
                JOINT lMid2
                {
                  OFFSET 3.10165 -0.590103 1.0647
                  CHANNELS 3 Zrotation Xrotation Yrotation
                  End Site
                  {
                    OFFSET 2.48547 -0.328903 0.83742
                  }
                }
              }
              JOINT lRing1
              {
                OFFSET 8.82822 0.546677 1.51678
                CHANNELS 3 Zrotation Xrotation Yrotation
                JOINT lRing2
                {
                  OFFSET 2.60934 -0.819778 -0.0198488
                  CHANNELS 3 Zrotation Xrotation Yrotation
                  End Site
                  {
                    OFFSET 2.33842 -0.294052 0.168128
                  }
                }
              }
              JOINT lPinky1
              {
                OFFSET 8.27202 -0.0477905 -0.4584
                CHANNELS 3 Zrotation Xrotation Yrotation
                JOINT lPinky2
                {
                  OFFSET 1.82734 -0.647385 -0.700984
                  CHANNELS 3 Zrotation Xrotation Yrotation
                  End Site
                  {
                    OFFSET 1.69225 -0.51767 -0.607171
                  }
                }
              }
            }
          }
        }
      }
    }
  }
  JOINT rButtock
  {
    OFFSET -8.77824 4.35084 1.2192
    CHANNELS 3 Zrotation Xrotation Yrotation
    JOINT rThigh
    {
      OFFSET 0 -1.70687 -2.19456
      CHANNELS 3 Zrotation Xrotation Yrotation
      JOINT rShin
      {
        OFFSET 0 -36.8199 0.73152
        CHANNELS 3 Zrotation Xrotation Yrotation
        JOINT rFoot
        {
          OFFSET 0.73152 -45.1104 -5.12064
          CHANNELS 3 Zrotation Xrotation Yrotation
          End Site
          {
            OFFSET -1.1221 -3.69964 12.103
          }
        }
      }
    }
  }
  JOINT lButtock
  {
    OFFSET 8.77824 4.35084 1.2192
    CHANNELS 3 Zrotation Xrotation Yrotation
    JOINT lThigh
    {
      OFFSET 0 -1.70687 -2.19456
      CHANNELS 3 Zrotation Xrotation Yrotation
      JOINT lShin
      {
        OFFSET 0 -36.8199 0.73152
        CHANNELS 3 Zrotation Xrotation Yrotation
        JOINT lFoot
        {
          OFFSET -0.73152 -45.1104 -5.12064
          CHANNELS 3 Zrotation Xrotation Yrotation
          End Site
          {
            OFFSET 1.1221 -3.69964 12.103
          }
        }
      }
    }
  }
}
MOTION
Frames:	5
Frame Time:	0.00833333
-172.1366 -1237.7506 -1109.7250000000001 -48.311699 28.654266 71.361104 178.903134 7.474676 -171.627356 172.793126 -31.693005 40.715919 134.162241 35.234934 -21.153748 134.693096 2.702139 -79.551878 38.6086 22.782775 59.81461 -58.164706 -7.099664 12.728577 76.220381 -49.549246 163.807475 -54.764221 24.985704 -150.795254 147.960218 -50.874644 -108.514373 -61.502628 4.886681 122.510924 -0.203535 -14.59657 -21.874515 -117.262394 -4.714561 139.356349 77.746697 -10.480675 -101.937516 -155.458493 -74.902375 45.125443 24.364575 -31.558159 125.961464 -131.013341 -16.611315 5.217635 -169.107428 -63.112611 7.690042 -145.849072 2.348049 5.235355 -70.213471 13.09562 42.455539 -144.810802 -49.804951 -8.046287 -30.968713 19.437873 -149.662395 -81.059263 87.267052 -91.192344 112.047813 -84.437553 -16.988215 -0.143673 -30.857404 -156.616329 144.323882 -23.712322 -77.178857 -23.019183 -69.870669 75.911899 55.075511 -16.983532 124.303197 -160.141289 64.17897 61.168136 137.540871 -52.664826 147.242059 -144.403874 64.187194 24.032662 -135.011257 11.399149 175.334915 -26.5294 -52.556913 122.166265 99.767585 -39.545214 -149.25476 -167.102619 -21.469144 154.717257 34.824429 -28.850831 -124.746713 109.532525 4.632048 103.265278 -164.988395 87.437522 -151.628491 156.401156 30.597274 -11.091435 110.463377 -79.770961 -159.435626 -89.359782 19.462664 0.0 -169.574617 46.864959 -95.383284 -52.759182 -0.949374 39.198028
-172.8054 -1231.0128 -1115.2239 -48.113577 28.371074 71.277634 179.822173 7.488205 -154.085012 -175.924234 -31.579424 60.299318 128.832189 48.806422 -103.006232 -169.933382 38.410121 -165.322602 39.02194 22.828661 59.348033 -58.355369 -7.000824 12.503726 -124.108232 16.746573 8.037936 -131.037964 -5.943151 35.108448 -6.155135 -11.674045 -136.609652 -130.532965 -28.181502 -91.143727 -9.135118 3.001409 -20.980644 23.869487 -24.069434 -38.27539 123.254569 14.103623 -87.083029 100.648088 25.979296 49.1227 -26.91192 -61.828485 94.382779 -118.357253 1.277185 -26.244823 104.852588 53.35295 87.889731 6.928961 2.290071 -165.201731 166.375633 30.934612 169.154098 68.727372 -59.174777 -71.246759 -22.903931 -6.500957 -156.212612 165.598748 -75.497518 -16.013548 27.056506 -9.195931 -171.441979 -168.512546 -46.604099 59.092207 14.1821 28.79098 -36.238702 145.87871 -67.709285 148.713233 168.404065 34.953964 152.595566 -150.51814 -22.380958 141.468876 13.061958 16.868016 34.419125 -45.225574 -13.60567 -144.419248 -135.724243 19.938287 179.964171 -123.856516 -25.378909 45.028163 32.12728 10.280893 -140.3992 -12.416589 -1.075292 -52.589581 31.457659 -32.670977 -122.767303 105.904647 1.997077 -0.0 -106.350752 -16.443612 -85.089101 159.287105 13.2021 98.779339 99.198544 -80.218562 -169.408278 -89.165534 18.129093 -89.204973 -123.324882 -9.040703 140.66953 -22.692627 -15.924366 67.552172
-173.5854 -1226.614 -1121.4113 -47.721332 27.746488 71.232137 179.768409 7.554483 -151.845722 -174.884908 -30.789125 61.521042 132.066495 37.991882 -31.527258 137.436981 10.728119 -88.766069 38.484644 22.557693 59.48232 -58.499814 -6.925057 12.332863 83.162299 -12.591923 161.3151 -69.687395 27.582481 -115.985161 175.344377 -40.508926 -83.035179 -58.870683 0.453566 106.619157 -168.179841 13.084376 108.10096 -95.472638 -21.781704 23.901638 -4.383988 -6.052211 -146.363017 -133.429018 28.046339 -162.686976 141.889 42.002931 56.743287 122.845041 -6.925853 -31.633314 -167.634809 -64.877858 9.1971 -151.252815 26.715755 10.351287 -66.922218 3.729349 39.142429 95.878249 -58.151585 -140.116144 166.521712 -55.917338 -0.676199 -37.740447 1.89545 175.790965 0.128794 -32.859128 -129.475645 -0.093521 -24.078485 -156.05507 -173.586226 -41.266807 -56.081113 -50.491468 2.150325 -8.384551 -10.307918 3.500898 90.539792 -4.627409 -7.118946 -123.445252 -178.158066 18.83141 -174.954888 -91.907162 -17.286339 105.444158 78.008121 -2.432202 4.380978 -99.255387 40.814019 -140.28475 31.998796 10.525057 -142.069344 116.285842 18.168086 -157.649332 155.410285 -22.094206 129.417817 -79.876757 -19.178567 -64.352816 -103.642811 -1.673989 -119.021398 153.959781 -25.753894 76.133548 -28.449358 -29.865484 129.221433 166.552908 52.093608 10.519277 -116.978264 27.649901 71.47817 -113.766176 42.99336 164.273337
-175.1999 -1239.5432 -1130.4604 -46.932273 26.577165 72.170318 177.631712 12.624252 10.715526 -173.14159 34.183406 -141.32981 155.801735 46.634571 101.502608 -138.696569 -44.903661 79.366113 38.136256 22.224037 59.212246 -58.743547 -6.844815 12.130564 -133.279014 40.141485 14.889403 -123.46999 9.234294 17.335443 -171.502155 8.182037 -75.98501 -57.889662 -2.797825 95.129675 -7.285161 -3.420236 -20.708633 -102.027696 -46.06862 160.053935 -170.316086 46.262541 -104.061374 -138.072392 46.57191 17.405576 175.90806 27.523187 30.827045 -3.730942 -34.64923 -140.697686 -171.746291 -53.867544 8.85038 -144.857768 8.273701 1.661064 -165.033283 51.116492 139.373688 25.469446 -9.486582 -125.713075 173.246055 -27.113247 -2.854428 147.309827 9.553329 17.519123 93.724409 54.408165 109.003659 -95.451703 -74.900338 125.223689 -14.434482 25.683742 -23.823694 -165.55714 -77.712066 -178.245843 -132.260348 49.404801 128.018612 49.847772 77.923783 89.976477 -168.738091 62.038806 -170.931283 -70.622524 -2.203777 147.447243 77.032364 -1.793665 0.388036 -58.500945 -48.689983 -155.434577 30.252643 12.472166 -144.454765 -40.885702 -44.799387 -47.864949 96.735751 7.8017 -180.0 -153.276296 25.360185 0.0 -99.422606 30.782738 3.388895 -20.668969 56.22996 -160.201442 -91.127686 4.211242 176.415026 77.203041 5.50839 -88.750956 179.564668 -66.433421 49.795816 -7.18291 -10.697929 76.559906
-177.11159999999998 -1253.5789 -1143.2782 -47.277699 27.491891 71.688513 179.292239 7.813638 -178.15573 167.630562 -27.724797 28.668453 140.78374 55.364647 -163.604018 -135.937006 15.512862 140.591149 38.941764 22.021597 57.652739 -58.802478 -6.482622 11.477967 80.805855 -56.258963 173.756537 -78.241629 63.485439 -143.566646 -94.54478 -83.42413 10.972825 -56.425501 -1.930396 91.258214 -10.170967 2.799303 -21.109326 14.82407 21.035497 -12.141308 47.420225 -16.648032 -117.994294 -66.114648 9.452509 148.200622 50.234848 4.802705 123.652908 179.435907 -1.11172 19.940312 41.397145 22.824922 150.380063 -0.804009 -0.759567 171.426957 -164.991519 50.955827 138.921789 -89.324955 76.219784 -70.276117 -16.826319 -32.37738 -158.547991 -95.905616 74.053875 -92.812878 82.564752 -59.259483 -55.337297 -41.721981 -66.623831 178.266051 -9.399473 28.120344 -27.90733 87.457592 -70.315983 65.327713 -85.898445 47.83368 103.926441 166.801942 73.390501 -12.838386 23.639244 -20.947999 35.001869 -127.250773 49.625542 -47.062924 155.608516 69.986983 -96.337549 22.444919 43.836481 111.37741 51.059826 -5.338169 -157.957604 173.389917 -33.509527 -173.330424 97.540765 8.126228 -180.0 -153.815851 26.582375 -47.696457 -93.444378 -5.894847 157.627236 -100.513753 -30.722274 -29.025515 -92.415113 4.224679 178.206983 74.935088 3.568265 81.160634 -133.126522 65.343623 105.357157 -85.283985 40.574258 162.52955
